<svg width="20" height="21" viewBox="0 0 20 21" fill="none" xmlns="http://www.w3.org/2000/svg">
<path d="M10 0.28418C15.5228 0.28418 20 4.76133 20 10.2842C20 15.807 15.5228 20.2842 10 20.2842C8.47241 20.2842 7.02447 19.9415 5.72949 19.3291L1.375 20.0547C0.700015 20.1672 0.113141 19.5837 0.222656 18.9082L0.935547 14.5137C0.335243 13.2292 0 11.7956 0 10.2842C0 4.76134 4.47716 0.284193 10 0.28418ZM6.88867 6.28418C6.39792 6.2843 6.00012 6.6821 6 7.17285C6 11.1002 9.18397 14.2842 13.1113 14.2842C13.6021 14.2841 13.9999 13.8863 14 13.3955V12.959C14 12.4172 13.67 11.9297 13.167 11.7285L12.7002 11.542C12.1788 11.3336 11.5842 11.5594 11.333 12.0615C11.3091 12.0567 10.2122 11.8303 9.33301 10.9512C8.45385 10.072 8.22752 8.97507 8.22266 8.95117C8.72483 8.69995 8.95056 8.10539 8.74219 7.58398L8.55566 7.11719C8.35444 6.61414 7.86699 6.28422 7.3252 6.28418H6.88867Z" fill="white"/>
</svg>
