<svg width="32" height="32" viewBox="0 0 32 32" fill="none" xmlns="http://www.w3.org/2000/svg">
<path d="M24.8348 17.5056L23.9183 16.6556L24.8348 17.5056ZM15.1097 7.78053L15.9598 8.69703L15.1097 7.78053ZM29.4523 5.76497L30.6917 5.92707L29.4523 5.76497ZM26.8503 3.16304L27.0125 4.40249L26.8503 3.16304ZM8.59328 17.2879L9.71566 17.8381L9.71566 17.8381L8.59328 17.2879ZM15.3274 24.022L14.7772 22.8997L15.3274 24.022ZM11.1311 13.7041C10.643 13.216 9.85153 13.216 9.36338 13.7041C8.87522 14.1923 8.87522 14.9837 9.36338 15.4719L11.1311 13.7041ZM17.1434 23.2519C17.6316 23.7401 18.423 23.7401 18.9112 23.2519C19.3993 22.7638 19.3993 21.9723 18.9112 21.4842L17.1434 23.2519ZM8.69988 25.6832C9.18804 25.195 9.18804 24.4036 8.69988 23.9154C8.21173 23.4273 7.42027 23.4273 6.93212 23.9154L8.69988 25.6832ZM3.0421 27.8055C2.55394 28.2936 2.55394 29.0851 3.0421 29.5732C3.53025 30.0614 4.32171 30.0614 4.80986 29.5732L3.0421 27.8055ZM5.78237 22.7657C6.27052 22.2775 6.27052 21.4861 5.78237 20.9979C5.29421 20.5098 4.50276 20.5098 4.0146 20.9979L5.78237 22.7657ZM2.06959 22.9429C1.58143 23.4311 1.58144 24.2225 2.06959 24.7107C2.55775 25.1988 3.3492 25.1988 3.83736 24.7107L2.06959 22.9429ZM11.6174 28.6007C12.1056 28.1126 12.1056 27.3211 11.6174 26.8329C11.1292 26.3448 10.3378 26.3448 9.84963 26.8329L11.6174 28.6007ZM7.90462 28.778C7.41647 29.2661 7.41647 30.0576 7.90462 30.5457C8.39278 31.0339 9.18423 31.0339 9.67239 30.5457L7.90462 28.778ZM14.2345 28.8838L15.472 28.7071L15.472 28.7071L14.2345 28.8838ZM21.3338 24.1186L22.5713 23.9418L21.3338 24.1186ZM3.73145 18.3808L3.90823 17.1434L3.90823 17.1434L3.73145 18.3808ZM8.49672 11.2815L8.31995 12.519L8.31995 12.519L8.49672 11.2815ZM12.3418 23.4902L13.2257 22.6063L10.009 19.3896L9.12512 20.2735L8.24123 21.1574L11.4579 24.3741L12.3418 23.4902ZM24.8348 17.5056L23.9183 16.6556C21.3435 19.4317 17.147 21.7379 14.7772 22.8997L15.3274 24.022L15.8777 25.1444C18.2733 23.97 22.8381 21.4966 25.7513 18.3556L24.8348 17.5056ZM8.59328 17.2879L9.71566 17.8381C10.8774 15.4683 13.1836 11.2718 15.9598 8.69703L15.1097 7.78053L14.2597 6.86404C11.1187 9.77719 8.64537 14.342 7.47091 16.7376L8.59328 17.2879ZM29.4523 5.76497L28.2128 5.60287C27.7956 8.79304 26.6911 13.6659 23.9183 16.6556L24.8348 17.5056L25.7513 18.3556C29.0959 14.7494 30.2667 9.17668 30.6917 5.92707L29.4523 5.76497ZM15.1097 7.78053L15.9598 8.69703C18.9494 5.92426 23.8223 4.81972 27.0125 4.40249L26.8503 3.16304L26.6882 1.9236C23.4386 2.3486 17.8659 3.51945 14.2597 6.86404L15.1097 7.78053ZM29.4523 5.76497L30.6917 5.92707C31.0006 3.56516 29.0502 1.61469 26.6882 1.9236L26.8503 3.16304L27.0125 4.40249C27.7462 4.30652 28.3088 4.86914 28.2128 5.60287L29.4523 5.76497ZM9.12512 20.2735L10.009 19.3896C9.57136 18.952 9.47284 18.3334 9.71566 17.8381L8.59328 17.2879L7.47091 16.7376C6.72829 18.2524 7.09591 20.0121 8.24123 21.1574L9.12512 20.2735ZM12.3418 23.4902L11.4579 24.3741C12.6033 25.5194 14.3629 25.887 15.8777 25.1444L15.3274 24.022L14.7772 22.8997C14.2819 23.1425 13.6633 23.044 13.2257 22.6063L12.3418 23.4902ZM10.2473 14.588L9.36338 15.4719L17.1434 23.2519L18.0273 22.3681L18.9112 21.4842L11.1311 13.7041L10.2473 14.588ZM7.816 24.7993L6.93212 23.9154L3.0421 27.8055L3.92598 28.6893L4.80986 29.5732L8.69988 25.6832L7.816 24.7993ZM4.89848 21.8818L4.0146 20.9979L2.06959 22.9429L2.95347 23.8268L3.83736 24.7107L5.78237 22.7657L4.89848 21.8818ZM10.7335 27.7168L9.84963 26.8329L7.90462 28.778L8.7885 29.6618L9.67239 30.5457L11.6174 28.6007L10.7335 27.7168ZM18.5136 10.2117L17.6297 9.32786C16.0673 10.8902 16.0673 13.4233 17.6297 14.9856L18.5136 14.1018L19.3974 13.2179C18.8114 12.6318 18.8114 11.6817 19.3974 11.0956L18.5136 10.2117ZM18.5136 14.1018L17.6297 14.9856C19.192 16.548 21.7251 16.548 23.2875 14.9856L22.4036 14.1018L21.5197 13.2179C20.9336 13.8039 19.9835 13.8039 19.3974 13.2179L18.5136 14.1018ZM22.4036 14.1018L23.2875 14.9856C24.8498 13.4233 24.8498 10.8902 23.2875 9.32786L22.4036 10.2117L21.5197 11.0956C22.1057 11.6817 22.1057 12.6318 21.5197 13.2179L22.4036 14.1018ZM22.4036 10.2117L23.2875 9.32786C21.7251 7.7655 19.192 7.7655 17.6297 9.32786L18.5136 10.2117L19.3974 11.0956C19.9835 10.5096 20.9336 10.5096 21.5197 11.0956L22.4036 10.2117ZM20.9448 25.2856L20.0609 24.4017L15.6847 28.778L16.5685 29.6618L17.4524 30.5457L21.8287 26.1695L20.9448 25.2856ZM14.2345 28.8838L15.472 28.7071L14.8885 24.6225L13.651 24.7993L12.4136 24.9761L12.9971 29.0606L14.2345 28.8838ZM20.9448 21.3955L19.7074 21.5723L20.0964 24.2953L21.3338 24.1186L22.5713 23.9418L22.1823 21.2188L20.9448 21.3955ZM16.5685 29.6618L15.6847 28.778C15.6573 28.8053 15.6383 28.8113 15.6263 28.8139C15.6094 28.8175 15.5845 28.8176 15.5564 28.8082C15.5283 28.7989 15.5085 28.7839 15.4971 28.7708C15.4891 28.7616 15.4774 28.7453 15.472 28.7071L14.2345 28.8838L12.9971 29.0606C13.303 31.2023 15.9227 32.0755 17.4524 30.5457L16.5685 29.6618ZM20.9448 25.2856L21.8287 26.1695C22.413 25.5851 22.6881 24.7598 22.5713 23.9418L21.3338 24.1186L20.0964 24.2953C20.102 24.3344 20.0888 24.3738 20.0609 24.4017L20.9448 25.2856ZM7.32972 11.6705L6.44583 10.7866L2.06956 15.1629L2.95345 16.0468L3.83733 16.9307L8.2136 12.5544L7.32972 11.6705ZM3.73145 18.3808L3.55467 19.6182L7.63919 20.2018L7.81597 18.9643L7.99275 17.7269L3.90823 17.1434L3.73145 18.3808ZM11.2197 11.6705L11.3965 10.4331L8.6735 10.0441L8.49672 11.2815L8.31995 12.519L11.043 12.908L11.2197 11.6705ZM2.95345 16.0468L2.06956 15.1629C0.539812 16.6927 1.41303 19.3123 3.55467 19.6182L3.73145 18.3808L3.90823 17.1434C3.86994 17.1379 3.85368 17.1263 3.84444 17.1182C3.83137 17.1069 3.81643 17.0871 3.80705 17.0589C3.79767 17.0308 3.79775 17.006 3.80138 16.9891C3.80395 16.9771 3.80998 16.958 3.83733 16.9307L2.95345 16.0468ZM7.32972 11.6705L8.2136 12.5544C8.24149 12.5265 8.2809 12.5134 8.31995 12.519L8.49672 11.2815L8.6735 10.0441C7.85546 9.92722 7.03015 10.2023 6.44583 10.7866L7.32972 11.6705Z" fill="#1255E3"/>
</svg>
