<svg width="24" height="24" viewBox="0 0 24 24" fill="none" xmlns="http://www.w3.org/2000/svg">
<path d="M1.13166 0.136923C0.719613 0.302689 0.301328 0.756742 0.120279 1.23962C-0.00458239 1.58557 -0.0108255 1.66485 0.00790373 5.49908L0.0266329 9.40539L0.195196 9.8162C0.426189 10.3856 0.807016 10.8396 1.30022 11.1207L1.71226 11.3513L11.7636 11.373C22.2956 11.3946 22.2082 11.4018 22.7451 11.0847C23.126 10.8612 23.5817 10.2847 23.8002 9.74413L24 9.26125V5.36935V1.47746L23.819 1.09548C23.5817 0.605391 23.3195 0.338724 22.8762 0.151337L22.5266 -1.43051e-05H11.9946C1.93077 0.00719261 1.45005 0.00719261 1.13166 0.136923ZM22.4704 1.58557C22.7014 1.72972 22.7202 2.0108 22.7202 5.39818C22.7139 9.19638 22.7077 9.23242 22.2332 9.62161L21.9585 9.83782H11.9509H1.93701L1.76845 9.68647C1.6748 9.60719 1.53745 9.44863 1.46878 9.34053C1.34392 9.14593 1.33768 9.05224 1.31895 5.49908L1.30022 1.85224L1.43757 1.67927L1.57491 1.5135H11.9634C18.6247 1.5135 22.3955 1.54233 22.4704 1.58557Z" fill="#1255E3"/>
<path d="M7.20613 3.1639C6.96265 3.27922 6.83154 3.53147 6.83154 3.87021C6.83154 4.14408 6.86276 4.22336 7.03756 4.40354L7.23734 4.61255H12.0008C16.4146 4.61255 16.7705 4.59813 16.8891 4.48282C17.2138 4.18012 17.2512 3.71886 16.9828 3.37291L16.8017 3.13507L12.0632 3.12066C9.45987 3.11345 7.2748 3.13507 7.20613 3.1639Z" fill="#1255E3"/>
<path d="M2.93593 6.86851C2.54262 7.09193 2.46146 7.755 2.77361 8.11536L2.92345 8.28833H11.9759H21.0283L21.1907 8.12256C21.3842 7.93518 21.4529 7.48112 21.3342 7.20725C21.2905 7.10635 21.1532 6.96941 21.0346 6.90455C20.8286 6.78202 20.2667 6.77482 11.9509 6.77482C5.0336 6.77482 3.05455 6.79644 2.93593 6.86851Z" fill="#1255E3"/>
<path d="M10.6961 12.9442C10.3152 13.1604 10.2653 13.3622 10.2466 14.8613L10.2216 16.2162H9.47866C8.76695 16.2162 8.72325 16.2234 8.57966 16.3964C8.49226 16.4901 8.42358 16.6487 8.42358 16.7496C8.42358 16.9514 8.52347 17.0883 10.3527 19.3802C11.7324 21.0955 11.8385 21.1892 12.2319 20.9658C12.4004 20.8721 15.035 17.737 15.4283 17.1748C15.6406 16.8577 15.6531 16.627 15.447 16.3964C15.3034 16.2234 15.2597 16.2162 14.5106 16.2162H13.7302V14.8613C13.7302 12.8577 13.7052 12.8288 11.9696 12.8288C11.1331 12.8288 10.8459 12.8577 10.6961 12.9442Z" fill="#1255E3"/>
<path d="M4.12207 21.809C4.00345 21.982 3.99097 22.0973 3.99097 22.8541C3.99097 23.618 4.00345 23.7261 4.11583 23.8559C4.24069 24 4.32185 24 12.0008 24H19.7672L19.8983 23.8342C20.0232 23.6829 20.0356 23.5892 20.0356 22.7892C20.0356 22.0036 20.0232 21.8955 19.9108 21.7658C19.7859 21.6216 19.7048 21.6216 12.0195 21.6216H4.24693L4.12207 21.809Z" fill="#1255E3"/>
</svg>
