<svg width="24" height="24" viewBox="0 0 24 24" fill="none" xmlns="http://www.w3.org/2000/svg">
<path d="M1.10542 0.117426C0.691626 0.284486 0.407882 0.569879 0.183251 1.02929L0 1.41214V5.31019V9.20824L0.153695 9.59109C0.360591 10.1132 0.62069 10.4473 0.987192 10.6631L1.29458 10.844H5.85222H10.4099L10.4808 10.5378C10.5281 10.322 10.6463 10.1132 10.8709 9.84168C11.0483 9.62589 11.1724 9.45187 11.1547 9.45187C11.131 9.45187 9.00887 9.45187 6.43153 9.45187C3.49951 9.45187 1.69655 9.43099 1.60197 9.38226C1.51921 9.34746 1.39507 9.21521 1.33005 9.08991C1.21773 8.86717 1.21182 8.73491 1.21182 5.345C1.21773 1.63488 1.21182 1.70449 1.48966 1.53047C1.58424 1.46782 4.2266 1.44694 12.0296 1.44694H22.4453L22.6167 1.6488L22.7882 1.85067V5.3798C22.7882 7.83697 22.7704 8.95069 22.7232 9.05511C22.5635 9.41707 22.469 9.45187 21.5054 9.45187C20.7429 9.45187 20.601 9.46579 20.601 9.55629C20.601 9.61197 20.6246 9.6607 20.6601 9.6607C20.6897 9.6607 20.8197 9.77207 20.9438 9.90433C21.1448 10.1132 21.2808 10.3916 21.3931 10.7953C21.4227 10.9136 21.4818 10.9206 22.0611 10.8788C23.0246 10.8162 23.5212 10.489 23.8581 9.68854L24 9.34746V5.4146V1.48174L23.864 1.18243C23.6571 0.723017 23.3498 0.368015 23.0069 0.187035L22.6995 0.0199747L12.0591 0.00605297C1.87389 -0.00786781 1.4069 -0.00786781 1.10542 0.117426Z" fill="#1255E3"/>
<path d="M7.08766 3.11055C6.73298 3.3681 6.69752 3.95281 7.01673 4.26604L7.19407 4.44006H11.9704C15.5527 4.44006 16.7941 4.41918 16.9064 4.35653C17.2551 4.16859 17.332 3.59781 17.0601 3.2428L16.8886 3.0131L12.0768 2.99221C7.43643 2.97829 7.265 2.98525 7.08766 3.11055Z" fill="#1255E3"/>
<path d="M15.0739 5.41463C14.5419 5.49817 13.5429 6.14552 12.9872 6.76503C12.3252 7.50288 11.8168 8.60269 11.6099 9.74426C11.5567 10.0366 11.5212 10.0923 11.3439 10.1828C11.1311 10.2872 10.9124 10.7188 10.9064 11.039C10.9064 11.3452 11.072 11.6724 11.2848 11.7977C11.4621 11.8952 11.4976 11.9508 11.5212 12.1945C11.6454 13.4405 11.7045 13.8094 11.8582 14.3593C12.0592 15.0693 12.3311 15.6818 12.6858 16.2039L12.934 16.5728L12.8513 16.8861L12.7685 17.1923L12.1774 17.4012C10.6345 17.9371 9.70053 18.5079 9.01482 19.3363C8.23452 20.269 7.89758 21.2366 7.85029 22.6914L7.81482 23.5754L7.99807 23.7842C8.13403 23.9513 8.22861 24 8.40595 24C8.87295 24 9.07393 23.6311 9.07393 22.761C9.07393 21.3688 9.6296 20.276 10.6995 19.5799C11.137 19.2875 12.2956 18.7515 12.6326 18.675C12.8217 18.6332 12.8335 18.6471 12.9104 18.8977C13.2769 20.1159 15.139 22.1902 15.8601 22.1902C16.1261 22.1902 16.404 22.0231 16.9242 21.5707C17.7872 20.798 18.6089 19.6565 18.8335 18.8977C18.8749 18.7585 18.9399 18.6402 18.9813 18.6402C19.1468 18.6402 20.4946 19.2318 20.9261 19.4964C21.5823 19.9001 22.138 20.5266 22.4099 21.1878C22.6109 21.6542 22.6286 21.7725 22.6936 22.6774C22.7764 23.8051 22.8296 23.9234 23.2729 23.9791C23.4917 24.007 23.5626 23.9861 23.6986 23.8469C23.9173 23.6241 23.9764 23.2343 23.9114 22.3572C23.8168 21.0695 23.4858 20.2272 22.7291 19.3363C21.9902 18.4662 21.1153 17.9441 19.5133 17.4151C18.9399 17.2202 18.9281 17.2132 18.8276 16.9417L18.7271 16.6633L19.0168 16.2457C19.6197 15.3616 19.9922 14.1853 20.134 12.6817C20.1991 11.9787 20.1991 11.9787 20.3882 11.9021C20.7311 11.7559 20.867 11.5123 20.867 11.0529C20.867 10.6979 20.8434 10.6144 20.6956 10.4334C20.601 10.322 20.4532 10.2037 20.3587 10.1828C20.2168 10.141 20.1872 10.0993 20.1518 9.81387C20.0394 8.88808 19.4897 7.66298 18.8572 6.91121C18.4848 6.47268 18.006 6.08983 17.202 5.59562C16.8296 5.37287 15.8838 5.28934 15.0739 5.41463ZM16.3803 7.20356C16.3626 7.42631 16.3271 7.90661 16.3094 8.27553C16.2739 8.89504 16.2798 8.95769 16.3981 9.0969C16.5577 9.28485 16.936 9.29877 17.0661 9.11779C17.1725 8.97857 17.2552 8.67229 17.3498 8.09455C17.4503 7.46111 17.4385 7.47503 17.6513 7.62121C17.9646 7.837 18.4552 8.51916 18.6798 9.0621C18.8394 9.43102 18.9163 9.73034 18.9577 10.141C18.9931 10.4543 19.0109 10.7188 18.9991 10.7397C18.9872 10.7536 18.6739 10.8162 18.3015 10.8719C17.137 11.0668 13.7616 11.0181 12.8927 10.8023C12.7271 10.7605 12.7271 10.7605 12.7685 10.3638C12.8572 9.46583 13.1468 8.66533 13.5961 8.07367C13.8326 7.76739 14.1281 7.50288 14.2404 7.50288C14.2641 7.50288 14.3114 7.72562 14.4532 8.56788C14.4946 8.79759 14.5715 9.03426 14.6365 9.11083C14.7843 9.28485 15.1035 9.27789 15.3045 9.0969L15.4582 8.95769V7.87876V6.8068H15.937H16.4217L16.3803 7.20356ZM14.0394 12.3476C15.3754 12.5077 17.4917 12.4381 18.7271 12.1945L18.9577 12.1527L18.9163 12.626C18.8099 13.8651 18.603 14.5472 18.0651 15.3825C17.4503 16.3431 16.8237 16.7677 15.9902 16.8164C15.068 16.8652 14.3527 16.4545 13.7557 15.5426C13.1528 14.6099 12.9104 13.8511 12.7744 12.4938L12.739 12.1527L12.9045 12.1945C12.9931 12.2153 13.5015 12.285 14.0394 12.3476ZM17.8286 17.9441C17.7045 18.6193 17.4798 19.0509 16.8473 19.7887C16.5222 20.1716 16.1616 20.5474 16.0434 20.617L15.8247 20.7493L15.4404 20.3943C14.601 19.6077 14.0099 18.6402 13.8917 17.8536L13.8503 17.5891L14.2227 17.8327C14.7193 18.146 15.2158 18.2921 15.8247 18.2921C16.4335 18.2921 16.8828 18.1599 17.4326 17.8188C17.6631 17.6726 17.8641 17.5613 17.87 17.5682C17.8818 17.5821 17.8641 17.7492 17.8286 17.9441Z" fill="#1255E3"/>
<path d="M2.69558 6.69537C2.52415 6.80675 2.40002 7.05734 2.3941 7.294C2.3941 7.53763 2.601 7.91352 2.78425 7.99008C2.87292 8.03185 4.58721 8.05969 7.24139 8.05969H11.5508L11.7399 7.64204C11.8463 7.40538 12.0355 7.07822 12.1596 6.91116L12.3961 6.59792H7.61381C3.76553 6.60488 2.8079 6.6188 2.69558 6.69537Z" fill="#1255E3"/>
<path d="M19.596 7.12703C19.7616 7.37762 19.9507 7.71174 20.0157 7.86488L20.134 8.14331L20.6601 8.11547C21.1093 8.09458 21.2039 8.0737 21.3281 7.93449C21.4108 7.844 21.4936 7.66301 21.5113 7.53772C21.5586 7.25233 21.4285 6.8486 21.263 6.74419C21.1921 6.69546 20.7665 6.66762 20.2167 6.66762H19.2946L19.596 7.12703Z" fill="#1255E3"/>
<path d="M5.62166 12.2571C5.39112 12.5564 4.49851 14.3941 4.32708 14.9301C4.13792 15.5357 4.14974 16.3849 4.35664 16.9C4.65812 17.6587 5.12511 18.0137 5.88767 18.0694C6.71526 18.1251 7.27092 17.7979 7.6256 17.0322C7.87388 16.4893 7.90344 15.7306 7.69654 15.0414C7.52511 14.4637 6.59703 12.5843 6.3192 12.2501C6.06501 11.9508 5.86403 11.9578 5.62166 12.2571ZM6.37831 14.7491C6.7389 15.5496 6.83348 15.9951 6.70935 16.3431C6.50245 16.9278 5.47979 16.893 5.28472 16.2874C5.1724 15.9463 5.26107 15.5078 5.62166 14.6934C5.81082 14.2618 5.98225 13.9277 6.0059 13.9555C6.02954 13.9904 6.19506 14.3454 6.37831 14.7491Z" fill="#1255E3"/>
</svg>
