<svg width="136" height="24" viewBox="0 0 136 24" fill="none" xmlns="http://www.w3.org/2000/svg">
<path fill-rule="evenodd" clip-rule="evenodd" d="M6.17022 15.0649L4.794 23.0889L12 19.3005L19.206 23.0889L17.8297 15.0649L23.6595 9.38227L15.603 8.21159L12 0.911133L8.39699 8.21159L0.340454 9.38227L6.17022 15.0649ZM15.6808 14.3666L16.5497 19.4328L12 17.0409L7.45026 19.4328L8.31918 14.3666L4.63838 10.7788L9.72512 10.0396L12 5.43024L14.2748 10.0396L19.3616 10.7788L15.6808 14.3666Z" fill="#FFD600"/>
<path fill-rule="evenodd" clip-rule="evenodd" d="M34.1702 15.0649L32.794 23.0889L40 19.3005L47.206 23.0889L45.8297 15.0649L51.6595 9.38227L43.603 8.21159L40 0.911133L36.397 8.21159L28.3405 9.38227L34.1702 15.0649ZM43.6808 14.3666L44.5497 19.4328L40 17.0409L35.4503 19.4328L36.3192 14.3666L32.6384 10.7788L37.7251 10.0396L40 5.43024L42.2748 10.0396L47.3616 10.7788L43.6808 14.3666Z" fill="#FFD600"/>
<path fill-rule="evenodd" clip-rule="evenodd" d="M62.1702 15.0649L60.794 23.0889L68 19.3005L75.206 23.0889L73.8297 15.0649L79.6595 9.38227L71.603 8.21159L68 0.911133L64.397 8.21159L56.3405 9.38227L62.1702 15.0649ZM71.6808 14.3666L72.5497 19.4328L68 17.0409L63.4503 19.4328L64.3192 14.3666L60.6384 10.7788L65.7251 10.0396L68 5.43024L70.2748 10.0396L75.3616 10.7788L71.6808 14.3666Z" fill="#FFD600"/>
<path fill-rule="evenodd" clip-rule="evenodd" d="M90.1702 15.0649L88.794 23.0889L96 19.3005L103.206 23.0889L101.83 15.0649L107.66 9.38227L99.603 8.21159L96 0.911133L92.397 8.21159L84.3405 9.38227L90.1702 15.0649ZM99.6808 14.3666L100.55 19.4328L96 17.0409L91.4503 19.4328L92.3192 14.3666L88.6384 10.7788L93.7251 10.0396L96 5.43024L98.2748 10.0396L103.362 10.7788L99.6808 14.3666Z" fill="#FFD600"/>
<path fill-rule="evenodd" clip-rule="evenodd" d="M118.17 15.0649L116.794 23.0889L124 19.3005L131.206 23.0889L129.83 15.0649L135.66 9.38227L127.603 8.21159L124 0.911133L120.397 8.21159L112.34 9.38227L118.17 15.0649ZM127.681 14.3666L128.55 19.4328L124 17.0409L119.45 19.4328L120.319 14.3666L116.638 10.7788L121.725 10.0396L124 5.43024L126.275 10.0396L131.362 10.7788L127.681 14.3666Z" fill="#FFD600"/>
</svg>
