<svg width="20" height="20" viewBox="0 0 20 20" fill="none" xmlns="http://www.w3.org/2000/svg">
<path d="M10 0C15.5228 0 20 4.47715 20 10C20 15.5228 15.5228 20 10 20C8.47241 20 7.02447 19.6574 5.72949 19.0449L1.375 19.7705C0.700015 19.883 0.113141 19.2995 0.222656 18.624L0.935547 14.2295C0.335243 12.945 0 11.5114 0 10C0 4.47716 4.47716 1.34009e-05 10 0ZM6.88867 6C6.39792 6.00012 6.00012 6.39792 6 6.88867C6 10.816 9.18397 14 13.1113 14C13.6021 13.9999 13.9999 13.6021 14 13.1113V12.6748C14 12.133 13.67 11.6456 13.167 11.4443L12.7002 11.2578C12.1788 11.0494 11.5842 11.2752 11.333 11.7773C11.3091 11.7725 10.2122 11.5462 9.33301 10.667C8.45385 9.78783 8.22752 8.69089 8.22266 8.66699C8.72483 8.41577 8.95056 7.82121 8.74219 7.2998L8.55566 6.83301C8.35444 6.32996 7.86699 6.00004 7.3252 6H6.88867Z" fill="#00DC6A"/>
</svg>
