<svg width="24" height="24" viewBox="0 0 24 24" fill="none" xmlns="http://www.w3.org/2000/svg">
<path d="M10.2155 0.111332C5.28531 0.774166 1.18395 4.69536 0.156838 9.72592C0.0222512 10.3957 -0.00608294 10.7237 0.00100059 12.0075C0.00100059 13.361 0.0222512 13.5983 0.192256 14.3867C1.21937 19.18 4.85322 22.8012 9.64168 23.799C10.5555 23.9873 12.4255 24.0641 13.3889 23.9385C16.2081 23.5966 18.7299 22.3407 20.6637 20.3173C22.2504 18.6498 23.2775 16.738 23.8158 14.4495C23.9929 13.696 24 13.5425 24 11.9377C24 10.4306 23.9787 10.1446 23.8442 9.53056C23.4829 7.93976 22.732 6.26523 21.7899 4.96049C21.2233 4.17207 20.1253 3.06967 19.3107 2.46265C16.6756 0.516008 13.4455 -0.321257 10.2155 0.111332ZM13.1905 1.64632C14.6852 1.88354 15.8469 2.21845 16.7535 2.66499C19.7853 4.15811 21.9599 7.1932 22.4204 10.5911C22.5337 11.4563 22.4629 13.2564 22.2787 14.1076C21.6483 16.9683 19.9341 19.4103 17.4902 20.9243C16.4985 21.5314 15.011 22.0895 13.8068 22.3058C12.8647 22.4663 11.0726 22.4733 10.1942 22.3128C8.04081 21.9221 6.24159 20.9871 4.70446 19.4731C3.80486 18.594 3.35859 17.9939 2.76358 16.8845C0.631435 12.9006 1.29729 7.98162 4.42112 4.72326C5.28531 3.81623 6.38326 3.03478 7.3112 2.65104C9.7196 1.66027 11.448 1.36723 13.1905 1.64632Z" fill="#1255E3"/>
<path d="M7.02078 4.82097C6.63119 4.91865 6.47535 5.01633 6.40451 5.2117C6.29826 5.47683 6.43993 5.67917 7.31829 6.50946C7.75747 6.92809 8.11873 7.33277 8.14706 7.43045C8.2179 7.73047 8.11164 7.98165 7.7433 8.32353C7.43871 8.62355 7.36079 8.65844 7.07745 8.65844C6.77286 8.65844 6.74452 8.63751 5.8945 7.82117C4.95947 6.92111 4.78947 6.83739 4.51321 7.13741C4.29362 7.38161 4.20862 7.71651 4.20862 8.37935C4.20862 9.06312 4.32904 9.54454 4.6478 10.1446C4.90989 10.626 5.5049 11.2191 5.97242 11.4703C6.68077 11.854 7.67246 11.9726 8.45874 11.7633C8.67124 11.7075 8.86958 11.6586 8.89791 11.6586C8.96875 11.6586 12.1493 14.9309 14.076 16.9962C16.0594 19.1173 16.2435 19.2638 16.9731 19.2638C17.6036 19.2638 17.9365 19.1382 18.3119 18.7754C18.8644 18.2312 19.0203 17.4009 18.7015 16.738C18.6307 16.5985 18.2198 16.1659 17.7807 15.7612C16.3781 14.4914 13.4172 11.7284 12.1988 10.5562L11.023 9.41198L11.108 9.1608C11.363 8.44912 11.278 7.49324 10.8884 6.70482C10.598 6.11873 9.80461 5.36519 9.13875 5.0582C8.64999 4.82795 8.5154 4.80004 7.94164 4.77911C7.58038 4.76515 7.16953 4.78609 7.02078 4.82097ZM17.5115 16.9962C17.7098 17.2264 17.7311 17.7218 17.5398 17.8893C17.1573 18.2312 16.6544 18.1474 16.4348 17.7079C16.286 17.3869 16.3427 17.1567 16.626 16.9195C16.9023 16.6892 17.2706 16.7241 17.5115 16.9962Z" fill="#1255E3"/>
<path d="M16.5198 5.85359C15.7052 6.65597 15.6839 6.68388 15.6839 6.99087V7.29787L14.2318 8.7282L12.7797 10.1585L13.3959 10.7655L14.0122 11.3726L15.4714 9.95619C16.8244 8.64447 16.966 8.53284 17.2494 8.48399C17.5256 8.44213 17.6531 8.34445 18.3969 7.61882C19.4807 6.55131 19.4807 6.47456 18.4961 5.53264C18.0073 5.06516 17.9436 5.03028 17.6602 5.03028C17.3627 5.03028 17.3273 5.05819 16.5198 5.85359Z" fill="#1255E3"/>
<path d="M7.20495 14.4634C6.18492 15.4821 5.44115 16.2775 5.34906 16.4519C5.03031 17.0798 5.09406 17.8264 5.52615 18.3846C5.84491 18.7962 6.25576 18.9846 6.82952 18.9846C7.57329 18.9846 7.72913 18.873 9.62752 16.9752C10.5625 16.0402 11.3276 15.2448 11.3276 15.2099C11.3276 15.1332 9.03958 12.7749 8.96166 12.7749C8.93333 12.7749 8.14706 13.5354 7.20495 14.4634Z" fill="#1255E3"/>
</svg>
